# xmcd
#
# Track frame offsets:
#	150
#	12615
#	22917
#	34285
#	42885
#	52710
#	64065
#	73290
#	83600
#	95687
#	104690
#	114855
#	125027
#	134710
#	142970
#	153017
#	161592
#	171970
#	180485
#	201110
#
# Disc length: 2815 seconds
#
# Revision: 0
# Processed by: cddbd v1.5.2PL0 Copyright (c) Steve Scherf et al.
# Submitted via: EZCDAudioConverter 1.3.4.1
#
DISCID=130afd14
DTITLE=Various Artist - Lost Legends Of Surf Guitar 4/4
DYEAR=2003
DGENRE=
TTITLE0=Zorba and The Greeks - Shockwave
TTITLE1=The Avengers VI - Heartbeat
TTITLE2=The Stage-Men - Fall Out
TTITLE3=The Truants - The Truant
TTITLE4=The Pastels - Raw-Hide
TTITLE5=The Belairs - Volcanic Action
TTITLE6=Jan Davis - Verti-Go-Go
TTITLE7=The Citations - Moon Race
TTITLE8=Thom Starr and The Galaxies - Chiflado
TTITLE9=Al Casey - The Hearse
TTITLE10=The Cornells - Beachbound
TTITLE11=The Teemates - Walk, Don't Run '64
TTITLE12=The Tornados - Scalping Party
TTITLE13=The Avengers Vi - Time Bomb
TTITLE14=The Truants - Sunset Surf
TTITLE15=Johnny and The Shy Guys - Moon Dawg
TTITLE16=The Teensmen - Spin Out
TTITLE17=The Avengers VI - The Avenger's Stomp
TTITLE18=The Belairs - Bedlam
TTITLE19=Jan Davis - Surfbuster
EXTD=
EXTT0=
EXTT1=
EXTT2=
EXTT3=
EXTT4=
EXTT5=
EXTT6=
EXTT7=
EXTT8=
EXTT9=
EXTT10=
EXTT11=
EXTT12=
EXTT13=
EXTT14=
EXTT15=
EXTT16=
EXTT17=
EXTT18=
EXTT19=
PLAYORDER=
